<?xml version="1.0" encoding="utf-8"?>
<!-- Generator: Adobe Illustrator 17.0.0, SVG Export Plug-In . SVG Version: 6.00 Build 0)  -->
<!DOCTYPE svg PUBLIC "-//W3C//DTD SVG 1.1//EN" "http://www.w3.org/Graphics/SVG/1.1/DTD/svg11.dtd">
<svg version="1.1" id="Layer_1" xmlns="http://www.w3.org/2000/svg" xmlns:xlink="http://www.w3.org/1999/xlink" x="0px" y="0px"
	 width="1920px" height="1080px" viewBox="0 0 1920 1080" enable-background="new 0 0 1920 1080" xml:space="preserve">
<path fill="#634629" d="M1182.595,540.556c0,138.461-99.658,241.517-232.763,241.517c-128.551,0-232.763-108.131-232.763-241.517
	s104.212-241.517,232.763-241.517S1182.595,407.17,1182.595,540.556z"/>
<path fill="#A57C52" d="M714.75,602.81l18.648,71.192c0,0-33.769,56.108-85.744,55.602
	C608.892,729.226,689.952,625.516,714.75,602.81z"/>
<path fill="#A57C52" d="M1184.593,619.015l-19.709,61.879c0,0,56.387,60.587,108.634,53.587
	C1312.483,729.26,1214.09,638.497,1184.593,619.015z"/>
<polygon fill="#F9A52F" points="927.333,493.667 945.333,569 977.267,493.603 "/>
<circle fill="#FFFFFF" cx="860.304" cy="433.098" r="46.665"/>
<circle fill="#FFFFFF" cx="1043.807" cy="429.097" r="46.665"/>
<circle cx="860.5" cy="448.857" r="19.196"/>
<circle cx="1041.5" cy="448.238" r="19.196"/>
<polyline fill="#F5BF7F" points="927.32,493 900.833,547 979.408,493 "/>
</svg>
