<?xml version="1.0" encoding="utf-8"?>
<!-- Generator: Adobe Illustrator 17.0.0, SVG Export Plug-In . SVG Version: 6.00 Build 0)  -->
<!DOCTYPE svg PUBLIC "-//W3C//DTD SVG 1.1//EN" "http://www.w3.org/Graphics/SVG/1.1/DTD/svg11.dtd">
<svg version="1.1" xmlns="http://www.w3.org/2000/svg" xmlns:xlink="http://www.w3.org/1999/xlink" x="0px" y="0px" width="1920px"
	 height="1080px" viewBox="0 0 1920 1080" enable-background="new 0 0 1920 1080" xml:space="preserve">
<g id="Layer_13">
	<g>
		<path fill="#8C7258" d="M998.683,383.769c-0.402-4.879-2.037-9.194-5.147-12.983c-10.356-12.643-23.499-19.434-36.75-19.282
			c-13.054,0.071-22.489,2.144-31.773,5.057c-7.255,2.287-14.162,5.307-20.175,10.106c-5.888,4.709-9.453,10.811-9.891,18.308
			c-0.867,14.609,4.012,27.02,15.449,36.419c11.312,9.301,24.482,14.269,39.019,15.511c6.228,0.536,12.634,0.572,18.362-2.171
			c5.844-2.797,11.499-6.103,16.852-9.748c6.424-4.369,10.338-10.74,12.312-18.263C998.916,399.173,999.327,391.524,998.683,383.769
			z M952.194,366.667c-4.539-0.992-9.016-2.019-13.822-1.206c-4.271,0.724-7.979,2.305-10.669,5.504
			c-3.02,3.601-5.87,7.443-8.149,11.544c-2.868,5.173-5.084,10.704-7.604,16.074c-0.563,1.197-1.197,2.359-1.796,3.529
			c-0.188-0.089-0.375-0.188-0.563-0.286c1.501-16.119,9.042-28.753,22.373-37.983c3.887-2.681,8.265-3.744,12.92-2.52
			c4.968,1.304,9.927,2.707,14.779,4.414c2.091,0.741,3.887,2.359,5.817,3.583c-0.098,0.152-0.197,0.313-0.295,0.465
			C960.852,368.74,956.537,367.614,952.194,366.667z M985.263,397.341c-2.457,7.202-6.505,13.322-12.786,17.79
			c-3.726,2.654-7.934,3.717-12.455,3.163c-1.617-0.206-3.163-0.956-4.736-1.457c0.009-0.25,0.018-0.5,0.036-0.751
			c2.332-0.652,4.637-1.528,7.014-1.93c12.447-2.109,19.648-9.766,23.106-21.498c0.045-0.125,0.107-0.25,0.188-0.366
			c0.027-0.045,0.116-0.045,0.545-0.17C985.87,393.972,985.808,395.733,985.263,397.341z"/>
	</g>
</g>
<g id="Layer_12">
	<path fill="#8C7054" d="M1081.19,670.366c0,6.806-5.518,12.324-12.324,12.324H825.478c-6.806,0-12.324-5.518-12.324-12.324V426.978
		c0-6.806,5.518-12.324,12.324-12.324h243.388c6.806,0,12.324,5.518,12.324,12.324V670.366z"/>
</g>
<g id="Layer_11">
	<circle fill="#FFFFFF" cx="894.579" cy="484.861" r="26.907"/>
</g>
<g id="Layer_10">
	<circle fill="#FFFFFF" cx="995.785" cy="482.619" r="26.907"/>
</g>
<g id="Layer_9">
	<circle cx="906.795" cy="492.86" r="10.193"/>
</g>
<g id="Layer_8">
	<circle cx="1007.171" cy="493.576" r="9.569"/>
</g>
<g id="Layer_7">
	<polygon fill="#FFA72D" points="925.388,525.149 945.326,569.873 969.671,525.149 	"/>
</g>
<g id="Layer_6">
	<polyline fill="#F7C080" points="925.915,524.676 944.75,570 970.197,524.676 	"/>
</g>
<g id="Layer_14">
	
		<rect x="894.985" y="450.833" transform="matrix(0.8887 0.4585 -0.4585 0.8887 308.7966 -367.0221)" width="30.696" height="3.333"/>
</g>
<g id="Layer_15">
	<rect x="955.5" y="447" transform="matrix(-0.7071 0.7071 -0.7071 -0.7071 1989.0818 73.4287)" width="47.667" height="3.333"/>
</g>
<g id="Layer_5">
	<g>
		<path d="M950.688,506.697c-5.845,0-11.487,0-17.33,0c0,0.971,0,1.896,0,2.82c0,2.512,0.019,5.024-0.005,7.535
			c-0.048,5.01-3.581,8.528-8.608,8.533c-13.905,0.014-27.81,0.016-41.714-0.001c-5.007-0.006-8.527-3.563-8.541-8.592
			c-0.017-6.19-0.012-12.38-0.002-18.57c0.009-5.397,3.449-8.856,8.821-8.859c13.725-0.008,27.451-0.006,41.176-0.001
			c5.389,0.002,8.813,3.409,8.871,8.81c0.004,0.397,0.001,0.795,0.001,1.281c5.778,0,11.451,0,17.33,0
			c0-0.57-0.008-1.131,0.001-1.693c0.079-4.851,3.616-8.382,8.474-8.391c10.047-0.019,20.095-0.006,30.142-0.006
			c3.902,0,7.805-0.013,11.707,0.004c4.94,0.02,8.515,3.539,8.539,8.457c0.032,6.369,0.031,12.739,0,19.108
			c-0.024,4.86-3.574,8.44-8.411,8.449c-13.995,0.024-27.989,0.022-41.984,0.002c-4.859-0.007-8.411-3.552-8.461-8.401
			C950.659,513.738,950.688,510.292,950.688,506.697z M980.128,493.328c-6.725,0-13.451-0.006-20.176,0.002
			c-3.552,0.004-5.729,2.138-5.742,5.666c-0.021,5.694-0.017,11.388-0.002,17.082c0.01,3.611,2.171,5.744,5.803,5.745
			c13.406,0.005,26.812,0.005,40.218,0c3.689-0.001,5.811-2.147,5.816-5.873c0.008-5.604,0.01-11.209-0.001-16.813
			c-0.007-3.693-2.151-5.807-5.876-5.809C993.489,493.325,986.809,493.328,980.128,493.328z M903.928,493.328
			c-6.68,0-13.36-0.004-20.04,0.002c-3.734,0.003-5.876,2.108-5.884,5.8c-0.012,5.649-0.012,11.298,0,16.947
			c0.008,3.605,2.17,5.746,5.8,5.748c13.405,0.006,26.81,0.005,40.215,0c3.692-0.001,5.81-2.138,5.818-5.869
			c0.011-5.604,0.013-11.208-0.001-16.812c-0.009-3.704-2.146-5.811-5.868-5.814C917.288,493.325,910.608,493.328,903.928,493.328z"
			/>
	</g>
</g>
<g id="Layer_4" display="none">
	<g display="inline">
		<path d="M924.155,694.39c2.781-2.081,5.482-4.281,8.357-6.224c32.196-21.76,64.359-43.57,96.655-65.181
			c21.196-14.184,42.598-28.058,63.891-42.097c1.835-1.21,3.692-2.011,5.846-1.09c1.859,0.794,3.04,2.228,3.245,4.282
			c0.231,2.31-0.816,4.009-2.749,5.211c-7.182,4.465-14.332,8.984-21.552,13.387c-45.096,27.499-90.198,54.989-135.33,82.43
			c-4.986,3.031-10.166,5.744-15.27,8.581c-0.857,0.477-1.781,0.835-2.674,1.247C924.435,694.754,924.295,694.572,924.155,694.39z"
			/>
		<path d="M899.245,720.52c-0.662-1.065-1.403-2.089-1.975-3.2c-8.468-16.432-17.162-32.755-25.318-49.341
			c-21.239-43.196-42.237-86.511-63.348-129.77c-0.825-1.69-1.406-3.365-0.673-5.212c0.754-1.899,2.15-3.082,4.197-3.331
			c2.021-0.245,3.708,0.466,4.927,2.115c0.394,0.534,0.677,1.16,0.949,1.772c23.201,52.144,46.436,104.273,69.555,156.454
			c4.028,9.09,7.572,18.395,11.322,27.608c0.348,0.854,0.569,1.759,0.849,2.641C899.568,720.344,899.407,720.432,899.245,720.52z"/>
	</g>
</g>
<g id="Layer_3">
	<path fill="#A68665" d="M787.737,560.499l70.57,0.17c0,0,49.694,48.461,42.856,100.154
		C896.063,699.373,806.487,591.21,787.737,560.499z"/>
</g>
<g id="Layer_2">
	<path fill="#A68665" d="M1063.51,623.547l-19.494-65.832c0,0,43.103-66.076,80.983-85.548c3.615-1.858-8.214,16.835-4.333,15.5
		c3.161-1.087,3.838-0.333,7.167-1C1165.312,479.163,1087.015,596.305,1063.51,623.547z"/>
</g>
</svg>
