<?xml version="1.0" encoding="utf-8"?>
<!-- Generator: Adobe Illustrator 17.0.0, SVG Export Plug-In . SVG Version: 6.00 Build 0)  -->
<!DOCTYPE svg PUBLIC "-//W3C//DTD SVG 1.1//EN" "http://www.w3.org/Graphics/SVG/1.1/DTD/svg11.dtd">
<svg version="1.1" xmlns="http://www.w3.org/2000/svg" xmlns:xlink="http://www.w3.org/1999/xlink" x="0px" y="0px" width="1920px"
	 height="1080px" viewBox="0 0 1920 1080" enable-background="new 0 0 1920 1080" xml:space="preserve">
<g id="Layer_4">
	<path fill="#8C7054" d="M763.372,956.209c0,7.003-5.677,12.679-12.679,12.679H500.29c-7.003,0-12.679-5.677-12.679-12.679V705.807
		c0-7.003,5.677-12.679,12.679-12.679h250.402c7.003,0,12.679,5.677,12.679,12.679V956.209z"/>
	<g id="Layer_5">
		<g>
			<path fill="#8C7258" d="M677.888,658.954c-0.414-5.019-2.096-9.459-5.295-13.357c-10.654-13.007-24.176-19.994-37.809-19.837
				c-13.43,0.073-23.138,2.206-32.689,5.203c-7.464,2.353-14.57,5.46-20.757,10.397c-6.058,4.844-9.726,11.123-10.176,18.836
				c-0.892,15.03,4.127,27.798,15.894,37.469c11.638,9.569,25.187,14.68,40.144,15.958c6.407,0.552,12.998,0.588,18.891-2.234
				c6.012-2.877,11.831-6.279,17.337-10.029c6.609-4.495,10.636-11.049,12.667-18.79
				C678.127,674.802,678.55,666.934,677.888,658.954z M630.059,641.36c-4.67-1.021-9.275-2.078-14.221-1.241
				c-4.394,0.745-8.209,2.372-10.976,5.663c-3.107,3.705-6.039,7.657-8.384,11.877c-2.951,5.323-5.231,11.013-7.823,16.537
				c-0.579,1.232-1.232,2.427-1.848,3.631c-0.193-0.092-0.386-0.193-0.579-0.294c1.544-16.583,9.303-29.581,23.018-39.077
				c3.999-2.758,8.503-3.852,13.292-2.592c5.111,1.342,10.213,2.785,15.205,4.541c2.151,0.763,3.999,2.427,5.984,3.686
				c-0.101,0.156-0.202,0.322-0.303,0.478C638.967,643.493,634.527,642.334,630.059,641.36z M664.081,672.918
				c-2.528,7.409-6.692,13.706-13.155,18.302c-3.833,2.73-8.163,3.824-12.814,3.254c-1.664-0.211-3.254-0.984-4.872-1.498
				c0.009-0.257,0.018-0.515,0.037-0.772c2.399-0.671,4.771-1.572,7.216-1.985c12.805-2.17,20.214-10.047,23.772-22.117
				c0.046-0.129,0.11-0.257,0.193-0.377c0.028-0.046,0.12-0.046,0.561-0.175C664.706,669.452,664.642,671.263,664.081,672.918z"/>
		</g>
	</g>
	<path fill="#8C7054" d="M568.366,941.207c0,0-62.169,43.151-59.191,56.356c2.977,13.205,109.842,64.251,102.808,45.396
		c-7.034-18.854,7.352-83.508,7.352-83.508"/>
	<path fill="#524233" d="M596.007,956.534c0,0,0.898,55.407,2.206,63.815c1.264,8.122-11.361,3.307-16.113,0.999
		c-0.168-0.081-0.325-0.16-0.472-0.234C577.311,1018.928,596.007,956.534,596.007,956.534z"/>
	<path fill="#524233" d="M584.128,958.281c0,0-16.907,50.374-18.36,58.544c-1.403,7.892-11.847-2.11-15.619-6.322
		c-0.133-0.148-0.258-0.29-0.373-0.423C546.378,1006.174,584.128,958.281,584.128,958.281z"/>
	<path fill="#524233" d="M573.025,959.464c0,0-29.394,40.948-32.908,48.053c-3.395,6.863-10.97-6.234-13.552-11.523
		c-0.091-0.187-0.176-0.363-0.254-0.529C524.014,990.595,573.025,959.464,573.025,959.464z"/>
</g>
<g id="Layer_3">
	<path fill="#A68665" d="M474.409,803.44l-0.175,72.604c0,0-15.072,23.221-68.255,16.185
		C366.318,886.982,442.813,822.73,474.409,803.44z"/>
</g>
<g id="Layer_2">
	<path fill="#A68665" d="M774.901,813.562l-2.284,66.003c0,0,13.492,23.591,64.102,25.987
		C874.462,907.339,804.176,836.313,774.901,813.562z"/>
</g>
</svg>
