<?xml version="1.0" encoding="utf-8"?>
<!-- Generator: Adobe Illustrator 17.0.0, SVG Export Plug-In . SVG Version: 6.00 Build 0)  -->
<!DOCTYPE svg PUBLIC "-//W3C//DTD SVG 1.1//EN" "http://www.w3.org/Graphics/SVG/1.1/DTD/svg11.dtd">
<svg version="1.1" xmlns="http://www.w3.org/2000/svg" xmlns:xlink="http://www.w3.org/1999/xlink" x="0px" y="0px" width="1920px"
	 height="1080px" viewBox="0 0 1920 1080" enable-background="new 0 0 1920 1080" xml:space="preserve">
<g id="Layer_8">
	<path fill="#635648" d="M873.012,770.89c0,105.903-90.403,184.726-211.147,184.726c-116.613,0-211.147-82.705-211.147-184.726
		s94.534-184.726,211.147-184.726S873.012,668.869,873.012,770.89z"/>
	<g id="Layer_5">
		<path fill="#635648" d="M556.725,861.06c0,0-98.5,40.961-97.657,58.576c0.843,17.616,138.39,107.735,133.268,81.94
			s31.539-105.357,31.539-105.357"/>
	</g>
	<g id="Layer_4">
		<path fill="#524130" d="M591.763,887.091c0,0-12.793,71.237-13.084,82.319c-0.281,10.704-16.839,1.615-22.945-2.44
			c-0.215-0.143-0.418-0.28-0.606-0.409C549.604,962.762,591.763,887.091,591.763,887.091z"/>
	</g>
	<g id="Layer_3">
		<path fill="#524130" d="M574.591,886.588c0,0-36.591,60.673-40.709,70.811c-3.979,9.793-16.148-5.442-20.392-11.711
			c-0.15-0.221-0.289-0.431-0.419-0.628C509.277,939.267,574.591,886.588,574.591,886.588z"/>
	</g>
	<g id="Layer_2">
		<path fill="#524130" d="M558.654,885.541c0,0-51.784,45.706-58.536,54.003c-6.522,8.014-13.868-10.525-16.162-17.902
			c-0.081-0.26-0.156-0.506-0.224-0.737C481.734,914.131,558.654,885.541,558.654,885.541z"/>
	</g>
</g>
<g id="Layer_7">
	<path fill="#8C7258" d="M433.565,769.531l13.245,51.189c0,0-22.492,34.077-57.811,27.009
		C362.66,842.458,416.9,781.881,433.565,769.531z"/>
</g>
<g id="Layer_6">
	<path fill="#8C7258" d="M889.22,784.172l-18.654,60.91c0,0,26.826,46.667,71.38,44.804
		C975.173,888.495,909.614,802.75,889.22,784.172z"/>
</g>
</svg>
